<svg width="671" height="168" viewBox="0 0 671 168" fill="none" xmlns="http://www.w3.org/2000/svg">
<path d="M42.44 127.4C35.0667 127.4 29.42 125.3 25.5 121.1C21.6733 116.9 19.76 110.973 19.76 103.32V50.68C19.76 43.0267 21.6733 37.1 25.5 32.9C29.42 28.7 35.0667 26.6 42.44 26.6C49.8133 26.6 55.4133 28.7 59.24 32.9C63.16 37.1 65.12 43.0267 65.12 50.68V61.04H50.56V49.7C50.56 43.6333 47.9933 40.6 42.86 40.6C37.7267 40.6 35.16 43.6333 35.16 49.7V104.44C35.16 110.413 37.7267 113.4 42.86 113.4C47.9933 113.4 50.56 110.413 50.56 104.44V89.46H65.12V103.32C65.12 110.973 63.16 116.9 59.24 121.1C55.4133 125.3 49.8133 127.4 42.44 127.4ZM118.434 28H139.294L155.254 126H139.854L137.054 106.54V106.82H119.554L116.754 126H102.474L118.434 28ZM135.234 93.52L128.374 45.08H128.094L121.374 93.52H135.234ZM194.925 28H214.245L229.225 86.66H229.505V28H243.225V126H227.405L208.925 54.46H208.645V126H194.925V28ZM308.571 127.4C301.198 127.4 295.551 125.3 291.631 121.1C287.805 116.9 285.891 110.973 285.891 103.32V50.68C285.891 43.0267 287.805 37.1 291.631 32.9C295.551 28.7 301.198 26.6 308.571 26.6C315.945 26.6 321.545 28.7 325.371 32.9C329.291 37.1 331.251 43.0267 331.251 50.68V61.04H316.691V49.7C316.691 43.6333 314.125 40.6 308.991 40.6C303.858 40.6 301.291 43.6333 301.291 49.7V104.44C301.291 110.413 303.858 113.4 308.991 113.4C314.125 113.4 316.691 110.413 316.691 104.44V89.46H331.251V103.32C331.251 110.973 329.291 116.9 325.371 121.1C321.545 125.3 315.945 127.4 308.571 127.4ZM372.665 28H414.665V42H388.065V67.9H409.205V81.9H388.065V112H414.665V126H372.665V28ZM455.724 28H471.124V112H496.464V126H455.724V28ZM536.049 28H578.049V42H551.449V67.9H572.589V81.9H551.449V112H578.049V126H536.049V28ZM619.109 28H642.629C650.282 28 656.022 30.0533 659.849 34.16C663.675 38.2667 665.589 44.2867 665.589 52.22V101.78C665.589 109.713 663.675 115.733 659.849 119.84C656.022 123.947 650.282 126 642.629 126H619.109V28ZM642.349 112C644.869 112 646.782 111.253 648.089 109.76C649.489 108.267 650.189 105.84 650.189 102.48V51.52C650.189 48.16 649.489 45.7333 648.089 44.24C646.782 42.7467 644.869 42 642.349 42H634.509V112H642.349Z" fill="#A6EABE"/>
<path d="M27.44 127.4C20.0667 127.4 14.42 125.3 10.5 121.1C6.67333 116.9 4.76 110.973 4.76 103.32V50.68C4.76 43.0267 6.67333 37.1 10.5 32.9C14.42 28.7 20.0667 26.6 27.44 26.6C34.8133 26.6 40.4133 28.7 44.24 32.9C48.16 37.1 50.12 43.0267 50.12 50.68V61.04H35.56V49.7C35.56 43.6333 32.9933 40.6 27.86 40.6C22.7267 40.6 20.16 43.6333 20.16 49.7V104.44C20.16 110.413 22.7267 113.4 27.86 113.4C32.9933 113.4 35.56 110.413 35.56 104.44V89.46H50.12V103.32C50.12 110.973 48.16 116.9 44.24 121.1C40.4133 125.3 34.8133 127.4 27.44 127.4ZM103.434 28H124.294L140.254 126H124.854L122.054 106.54V106.82H104.554L101.754 126H87.4737L103.434 28ZM120.234 93.52L113.374 45.08H113.094L106.374 93.52H120.234ZM179.925 28H199.245L214.225 86.66H214.505V28H228.225V126H212.405L193.925 54.46H193.645V126H179.925V28ZM293.571 127.4C286.198 127.4 280.551 125.3 276.631 121.1C272.805 116.9 270.891 110.973 270.891 103.32V50.68C270.891 43.0267 272.805 37.1 276.631 32.9C280.551 28.7 286.198 26.6 293.571 26.6C300.945 26.6 306.545 28.7 310.371 32.9C314.291 37.1 316.251 43.0267 316.251 50.68V61.04H301.691V49.7C301.691 43.6333 299.125 40.6 293.991 40.6C288.858 40.6 286.291 43.6333 286.291 49.7V104.44C286.291 110.413 288.858 113.4 293.991 113.4C299.125 113.4 301.691 110.413 301.691 104.44V89.46H316.251V103.32C316.251 110.973 314.291 116.9 310.371 121.1C306.545 125.3 300.945 127.4 293.571 127.4ZM357.665 28H399.665V42H373.065V67.9H394.205V81.9H373.065V112H399.665V126H357.665V28ZM440.724 28H456.124V112H481.464V126H440.724V28ZM521.049 28H563.049V42H536.449V67.9H557.589V81.9H536.449V112H563.049V126H521.049V28ZM604.109 28H627.629C635.282 28 641.022 30.0533 644.849 34.16C648.675 38.2667 650.589 44.2867 650.589 52.22V101.78C650.589 109.713 648.675 115.733 644.849 119.84C641.022 123.947 635.282 126 627.629 126H604.109V28ZM627.349 112C629.869 112 631.782 111.253 633.089 109.76C634.489 108.267 635.189 105.84 635.189 102.48V51.52C635.189 48.16 634.489 45.7333 633.089 44.24C631.782 42.7467 629.869 42 627.349 42H619.509V112H627.349Z" fill="#1A1A1A"/>
</svg>
