<svg width="523" height="168" viewBox="0 0 523 168" fill="none" xmlns="http://www.w3.org/2000/svg">
<path opacity="0.6" d="M32.78 42H16.68V28H64.28V42H48.18V126H32.78V42ZM106.316 28H121.716V67.9H138.236V28H153.636V126H138.236V81.9H121.716V126H106.316V28ZM211.585 28H232.445L248.405 126H233.005L230.205 106.54V106.82H212.705L209.905 126H195.625L211.585 28ZM228.385 93.52L221.525 45.08H221.245L214.525 93.52H228.385ZM290.457 28H309.777L324.757 86.66H325.037V28H338.757V126H322.937L304.457 54.46H304.177V126H290.457V28ZM384.783 28H400.183V69.3L419.783 28H435.183L416.843 63.98L435.463 126H419.363L406.343 82.32L400.183 94.78V126H384.783V28ZM496.394 127.4C488.928 127.4 483.281 125.3 479.454 121.1C475.628 116.807 473.714 110.693 473.714 102.76V97.16H488.274V103.88C488.274 110.227 490.934 113.4 496.254 113.4C498.868 113.4 500.828 112.653 502.134 111.16C503.534 109.573 504.234 107.053 504.234 103.6C504.234 99.4933 503.301 95.9 501.434 92.82C499.568 89.6467 496.114 85.8667 491.074 81.48C484.728 75.88 480.294 70.84 477.774 66.36C475.254 61.7867 473.994 56.6533 473.994 50.96C473.994 43.2133 475.954 37.24 479.874 33.04C483.794 28.7467 489.488 26.6 496.954 26.6C504.328 26.6 509.881 28.7467 513.614 33.04C517.441 37.24 519.354 43.3067 519.354 51.24V55.3H504.794V50.26C504.794 46.9 504.141 44.4733 502.834 42.98C501.528 41.3933 499.614 40.6 497.094 40.6C491.961 40.6 489.394 43.7267 489.394 49.98C489.394 53.5267 490.328 56.84 492.194 59.92C494.154 63 497.654 66.7333 502.694 71.12C509.134 76.72 513.568 81.8067 515.994 86.38C518.421 90.9533 519.634 96.32 519.634 102.48C519.634 110.507 517.628 116.667 513.614 120.96C509.694 125.253 503.954 127.4 496.394 127.4Z" fill="#6BDC92"/>
<path d="M17.78 42H1.68V28H49.28V42H33.18V126H17.78V42ZM92.4361 28H107.836V67.9H124.356V28H139.756V126H124.356V81.9H107.836V126H92.4361V28ZM198.825 28H219.685L235.645 126H220.245L217.445 106.54V106.82H199.945L197.145 126H182.865L198.825 28ZM215.625 93.52L208.765 45.08H208.485L201.765 93.52H215.625ZM278.817 28H298.137L313.117 86.66H313.397V28H327.117V126H311.297L292.817 54.46H292.537V126H278.817V28ZM374.263 28H389.663V69.3L409.263 28H424.663L406.323 63.98L424.943 126H408.843L395.823 82.32L389.663 94.78V126H374.263V28ZM486.994 127.4C479.528 127.4 473.881 125.3 470.054 121.1C466.228 116.807 464.314 110.693 464.314 102.76V97.16H478.874V103.88C478.874 110.227 481.534 113.4 486.854 113.4C489.468 113.4 491.428 112.653 492.734 111.16C494.134 109.573 494.834 107.053 494.834 103.6C494.834 99.4933 493.901 95.9 492.034 92.82C490.168 89.6467 486.714 85.8667 481.674 81.48C475.328 75.88 470.894 70.84 468.374 66.36C465.854 61.7867 464.594 56.6533 464.594 50.96C464.594 43.2133 466.554 37.24 470.474 33.04C474.394 28.7467 480.088 26.6 487.554 26.6C494.928 26.6 500.481 28.7467 504.214 33.04C508.041 37.24 509.954 43.3067 509.954 51.24V55.3H495.394V50.26C495.394 46.9 494.741 44.4733 493.434 42.98C492.128 41.3933 490.214 40.6 487.694 40.6C482.561 40.6 479.994 43.7267 479.994 49.98C479.994 53.5267 480.928 56.84 482.794 59.92C484.754 63 488.254 66.7333 493.294 71.12C499.734 76.72 504.168 81.8067 506.594 86.38C509.021 90.9533 510.234 96.32 510.234 102.48C510.234 110.507 508.228 116.667 504.214 120.96C500.294 125.253 494.554 127.4 486.994 127.4Z" fill="#1A1A1A"/>
</svg>
